<?xml version="1.0" encoding="UTF-8" standalone="no"?>
<!-- Created with Inkscape (http://www.inkscape.org/) -->

<svg
   xmlns:dc="http://purl.org/dc/elements/1.1/"
   xmlns:cc="http://creativecommons.org/ns#"
   xmlns:rdf="http://www.w3.org/1999/02/22-rdf-syntax-ns#"
   xmlns:svg="http://www.w3.org/2000/svg"
   xmlns="http://www.w3.org/2000/svg"
   xmlns:xlink="http://www.w3.org/1999/xlink"
   version="1.2"
   width="48"
   height="48"
   id="svg3440">
  <defs
     id="defs3">
    <linearGradient
       id="linearGradient6001">
      <stop
         id="stop6003"
         style="stop-color:#ffffff;stop-opacity:1"
         offset="0" />
      <stop
         id="stop6005"
         style="stop-color:#ffffff;stop-opacity:0"
         offset="1" />
    </linearGradient>
    <linearGradient
       id="linearGradient4825">
      <stop
         id="stop4827"
         style="stop-color:#ffffff;stop-opacity:1"
         offset="0" />
      <stop
         id="stop4829"
         style="stop-color:#ffffff;stop-opacity:0"
         offset="1" />
    </linearGradient>
    <linearGradient
       id="linearGradient4126">
      <stop
         id="stop4128"
         style="stop-color:#ffffff;stop-opacity:1"
         offset="0" />
      <stop
         id="stop4130"
         style="stop-color:#ffffff;stop-opacity:0.16494845"
         offset="1" />
    </linearGradient>
    <linearGradient
       id="linearGradient4114">
      <stop
         id="stop4116"
         style="stop-color:#000000;stop-opacity:1"
         offset="0" />
      <stop
         id="stop4118"
         style="stop-color:#000000;stop-opacity:0"
         offset="1" />
    </linearGradient>
    <linearGradient
       id="linearGradient3962">
      <stop
         id="stop3964"
         style="stop-color:#d3e9ff;stop-opacity:1"
         offset="0" />
      <stop
         id="stop4134"
         style="stop-color:#d3e9ff;stop-opacity:1"
         offset="0.15517241" />
      <stop
         id="stop4346"
         style="stop-color:#4074ae;stop-opacity:1"
         offset="0.75" />
      <stop
         id="stop3966"
         style="stop-color:#36486c;stop-opacity:1"
         offset="1" />
    </linearGradient>
    <radialGradient
       cx="18.247644"
       cy="15.716079"
       r="29.993349"
       fx="18.247644"
       fy="15.716079"
       id="radialGradient3968"
       xlink:href="#linearGradient3962"
       gradientUnits="userSpaceOnUse"
       gradientTransform="scale(0.999989,1.000011)" />
    <radialGradient
       cx="15.115514"
       cy="63.965389"
       r="12.289036"
       fx="15.115514"
       fy="63.965389"
       id="radialGradient4120"
       xlink:href="#linearGradient4114"
       gradientUnits="userSpaceOnUse"
       gradientTransform="scale(1.64399,0.608276)" />
    <radialGradient
       cx="15.601279"
       cy="12.142302"
       r="43.526714"
       fx="15.601279"
       fy="12.142302"
       id="radialGradient4132"
       xlink:href="#linearGradient4126"
       gradientUnits="userSpaceOnUse"
       gradientTransform="scale(0.999989,1.000011)" />
    <radialGradient
       cx="12.071323"
       cy="12.493138"
       r="6.7175145"
       fx="12.071323"
       fy="12.493138"
       id="radialGradient5983"
       xlink:href="#linearGradient4825"
       gradientUnits="userSpaceOnUse" />
    <radialGradient
       cx="12.071323"
       cy="12.493138"
       r="6.7175145"
       fx="12.071323"
       fy="12.493138"
       id="radialGradient5985"
       xlink:href="#linearGradient4825"
       gradientUnits="userSpaceOnUse" />
    <radialGradient
       cx="12.071323"
       cy="12.493138"
       r="6.7175145"
       fx="12.071323"
       fy="12.493138"
       id="radialGradient5987"
       xlink:href="#linearGradient4825"
       gradientUnits="userSpaceOnUse" />
    <radialGradient
       cx="12.071323"
       cy="12.493138"
       r="6.7175145"
       fx="12.071323"
       fy="12.493138"
       id="radialGradient5989"
       xlink:href="#linearGradient4825"
       gradientUnits="userSpaceOnUse" />
    <linearGradient
       x1="-25.176178"
       y1="30.057165"
       x2="-22.252472"
       y2="21.041553"
       id="linearGradient6007"
       xlink:href="#linearGradient6001"
       gradientUnits="userSpaceOnUse" />
    <linearGradient
       x1="-25.176178"
       y1="30.057165"
       x2="-22.113543"
       y2="22.661524"
       id="linearGradient6011"
       xlink:href="#linearGradient6001"
       gradientUnits="userSpaceOnUse" />
    <linearGradient
       x1="-22.822565"
       y1="28.337734"
       x2="-22.113543"
       y2="22.661524"
       id="linearGradient6015"
       xlink:href="#linearGradient6001"
       gradientUnits="userSpaceOnUse" />
    <linearGradient
       x1="-21.658581"
       y1="15.649428"
       x2="-21.962101"
       y2="21.336346"
       id="linearGradient6019"
       xlink:href="#linearGradient6001"
       gradientUnits="userSpaceOnUse" />
  </defs>
  <metadata
     id="metadata4">
    <rdf:RDF>
      <cc:Work
         rdf:about="">
        <dc:format>image/svg+xml</dc:format>
        <dc:type
           rdf:resource="http://purl.org/dc/dcmitype/StillImage" />
        <dc:title></dc:title>
        <dc:creator>
          <cc:Agent>
            <dc:title>Jakub Steiner</dc:title>
          </cc:Agent>
        </dc:creator>
        <dc:contributor>
          <cc:Agent>
            <dc:title>Tuomas Kuosmanen</dc:title>
          </cc:Agent>
        </dc:contributor>
        <cc:license
           rdf:resource="http://creativecommons.org/licenses/publicdomain/" />
        <dc:source>http://jimmac.musichall.cz</dc:source>
        <dc:subject>
          <rdf:Bag>
            <rdf:li>internet</rdf:li>
            <rdf:li>tools</rdf:li>
            <rdf:li>applications</rdf:li>
            <rdf:li>category</rdf:li>
          </rdf:Bag>
        </dc:subject>
      </cc:Work>
      <cc:License
         rdf:about="http://creativecommons.org/licenses/publicdomain/">
        <cc:permits
           rdf:resource="http://creativecommons.org/ns#Reproduction" />
        <cc:permits
           rdf:resource="http://creativecommons.org/ns#Distribution" />
        <cc:permits
           rdf:resource="http://creativecommons.org/ns#DerivativeWorks" />
      </cc:License>
    </rdf:RDF>
  </metadata>
  <g
     id="layer1">
    <path
       d="m 45.052803,38.908627 a 20.203051,7.4751287 0 1 1 -40.4061012,0 20.203051,7.4751287 0 1 1 40.4061012,0 z"
       transform="matrix(1,0,0,1.243244,0,-10.27241)"
       id="path4112"
       style="fill:url(#radialGradient4120);fill-opacity:1;stroke:none" />
    <path
       d="m 43.959853,23.485499 c 0,10.709718 -8.682103,19.391723 -19.390348,19.391723 -10.709226,0 -19.3908387,-8.682103 -19.3908387,-19.391723 0,-10.709227 8.6816127,-19.3903473 19.3908387,-19.3903473 10.708245,0 19.390348,8.6811203 19.390348,19.3903473 l 0,0 z"
       id="path3214"
       style="fill:url(#radialGradient3968);fill-opacity:1;fill-rule:nonzero;stroke:#39396c;stroke-miterlimit:4;stroke-opacity:1" />
    <g
       transform="matrix(0.982371,0,0,0.982371,0.121079,0.232914)"
       id="g4136"
       style="fill:#204a87;fill-opacity:0.71345029;fill-rule:nonzero;stroke:none">
      <g
         id="g4138"
         style="fill:#204a87">
        <g
           id="g4142"
           style="fill:#204a87">
          <path
             d="m 44.0713,20.7144 c 0,0.2627 0,0 0,0 l -0.5449,0.6172 c -0.334,-0.3936 -0.709,-0.7246 -1.0898,-1.0703 l -0.8359,0.123 -0.7637,-0.8633 0,1.0684 0.6543,0.4951 0.4355,0.4932 0.582,-0.6582 c 0.1465,0.2744 0.291,0.5488 0.4365,0.8232 l 0,0.8223 -0.6553,0.7402 -1.1992,0.8232 -0.9082,0.9063 -0.582,-0.6602 0.291,-0.7402 -0.5811,-0.6582 -0.9814,-2.0977 -0.8359,-0.9453 -0.2188,0.2461 0.3281,1.1934 0.6172,0.6992 c 0.3525,1.0176 0.7012,1.9902 1.1641,2.9629 0.7178,0 1.3945,-0.0762 2.1074,-0.166 l 0,0.5762 -0.8721,2.1392 -0.7998,0.9043 -0.6543,1.4004 c 0,0.7676 0,1.5352 0,2.3027 l 0.2188,0.9063 -0.3633,0.4102 -0.8008,0.4941 -0.8359,0.6992 0.6914,0.7813 -0.9453,0.8242 0.1816,0.5332 -1.418,1.6055 -0.9443,0 -0.7998,0.4941 -0.5098,0 0,-0.6582 -0.2168,-1.3184 c -0.2813,-0.8262 -0.5742,-1.6465 -0.8721,-2.4668 0,-0.6055 0.0361,-1.2051 0.0723,-1.8105 l 0.3643,-0.8223 -0.5098,-0.9883 0.0371,-1.3574 -0.6914,-0.7813 0.3457,-1.1309 -0.5625,-0.6382 -0.9824,0 -0.3271,-0.3701 -0.9814,0.6177 -0.3994,-0.4536 -0.9092,0.7817 c -0.6172,-0.6997 -1.2354,-1.3989 -1.8535,-2.0981 l -0.7266,-1.7285 0.6543,-0.9863 -0.3633,-0.4111 0.7988,-1.8936 c 0.6563,-0.8164 1.3418,-1.5996 2.0352,-2.3857 l 1.2363,-0.3291 1.3809,-0.1641 0.9453,0.2471 1.3447,1.3564 0.4727,-0.5342 0.6533,-0.082 1.2363,0.4111 0.9453,0 0.6543,-0.5762 0.291,-0.4111 -0.6553,-0.4111 -1.0908,-0.082 c -0.3027,-0.4199 -0.584,-0.8613 -0.9434,-1.2344 l -0.3643,0.1641 -0.1455,1.0703 -0.6543,-0.7402 -0.1445,-0.8242 -0.7266,-0.5742 -0.292,0 0.7275,0.8223 -0.291,0.7402 -0.5811,0.1641 0.3633,-0.7402 -0.6553,-0.3281 -0.5801,-0.6582 -1.0918,0.2461 -0.1445,0.3281 -0.6543,0.4121 -0.3633,0.9053 -0.9082,0.4521 -0.4004,-0.4521 -0.4355,0 0,-1.4814 0.9453,-0.4941 0.7266,0 -0.1465,-0.5752 -0.5801,-0.5762 0.9805,-0.2061 0.5449,-0.6162 0.4355,-0.7412 0.8008,0 -0.2188,-0.5752 0.5098,-0.3291 0,0.6582 1.0898,0.2461 1.0898,-0.9043 0.0732,-0.4121 0.9443,-0.6577 c -0.3418,0.0425 -0.6836,0.0737 -1.0176,0.1646 l 0,-0.7411 0.3633,-0.8228 -0.3633,0 -0.7984,0.7402 -0.2188,0.4116 0.2188,0.5767 -0.3643,0.9863 -0.5811,-0.3291 -0.5078,-0.5752 -0.8008,0.5752 -0.291,-1.3159 1.3809,-0.9048 0,-0.4941 0.873,-0.5757 1.3809,-0.3296 0.9453,0.3296 1.7441,0.3291 -0.4355,0.4932 -0.9453,0 0.9453,0.9873 0.7266,-0.8223 0.2207,-0.3618 c 0,0 2.7871,2.498 4.3799,5.2305 1.5928,2.7334 2.3408,5.9551 2.3408,6.6094 z"
             id="path4144"
             style="fill:#204a87" />
        </g>
      </g>
      <g
         id="g4146"
         style="fill:#204a87">
        <g
           id="g4150"
           style="fill:#204a87">
          <path
             d="m 26.0703,9.2363 -0.0732,0.4932 0.5098,0.3291 0.8711,-0.5757 -0.4355,-0.4937 -0.582,0.3296 -0.29,-0.0825"
             id="path4152"
             style="fill:#204a87" />
        </g>
      </g>
      <g
         id="g4154"
         style="fill:#204a87">
        <g
           id="g4158"
           style="fill:#204a87">
          <path
             d="m 26.8701,5.8633 -1.8906,-0.7407 -2.1797,0.2466 -2.6904,0.7402 -0.5088,0.4941 1.6719,1.1514 0,0.6582 -0.6543,0.6582 0.873,1.729 0.5801,-0.3301 0.7285,-1.1514 c 1.123,-0.3472 2.1299,-0.7407 3.1973,-1.2344 l 0.873,-2.2212"
             id="path4160"
             style="fill:#204a87" />
        </g>
      </g>
      <g
         id="g4162"
         style="fill:#204a87">
        <g
           id="g4166"
           style="fill:#204a87">
          <path
             d="m 28.833,12.7749 -0.291,-0.7412 -0.5098,0.165 0.1465,0.9043 0.6543,-0.3281"
             id="path4168"
             style="fill:#204a87" />
        </g>
      </g>
      <g
         id="g4170"
         style="fill:#204a87">
        <g
           id="g4174"
           style="fill:#204a87">
          <path
             d="m 29.123,12.6089 -0.1455,0.9883 0.7998,-0.165 0.5811,-0.5752 -0.5088,-0.4941 C 29.6787,11.9078 29.4824,11.483 29.2685,11.0465 l -0.4355,0 0,0.4932 0.29,0.3291 0,0.7402"
             id="path4176"
             style="fill:#204a87" />
        </g>
      </g>
      <g
         id="g4178"
         style="fill:#204a87">
        <g
           id="g4182"
           style="fill:#204a87">
          <path
             d="m 18.3652,28.2422 -0.582,-1.1523 -1.0903,-0.2466 -0.5815,-1.5625 -1.4536,0.1641 -1.2354,-0.9043 -1.3091,1.1514 0,0.1816 c -0.396,-0.1143 -0.8828,-0.1299 -1.2354,-0.3467 l -0.291,-0.8223 0,-0.9053 -0.8721,0.082 c 0.0728,-0.5762 0.145,-1.1514 0.2183,-1.7275 l -0.5093,0 -0.5083,0.6582 -0.5093,0.2461 -0.7271,-0.4102 -0.0728,-0.9053 0.1455,-0.9873 1.0908,-0.8223 0.8721,0 0.145,-0.4941 1.0903,0.2461 0.7998,0.9883 0.1455,-1.6465 1.3813,-1.1514 0.5088,-1.2344 1.0176,-0.4111 0.5815,-0.8223 1.3081,-0.248 0.6548,-0.9863 c -0.6543,0 -1.3086,0 -1.9629,0 l 1.2358,-0.5762 0.8716,0 1.2363,-0.4121 0.1455,-0.4922 -0.4365,-0.4121 -0.5088,-0.165 0.1455,-0.4932 -0.3633,-0.7402 -0.8726,0.3281 0.1455,-0.6577 -1.0176,-0.5762 -0.7993,1.3979 0.0723,0.4941 -0.7993,0.3301 -0.5093,1.0693 -0.2178,-0.9873 -1.3813,-0.5762 -0.2183,-0.7402 1.8174,-1.0703 0.7998,-0.7402 0.0728,-0.9048 -0.436,-0.2471 -0.5815,-0.0825 -0.3633,0.9053 c 0,0 -0.6079,0.1191 -0.7642,0.1577 -1.9961,1.8394 -6.0293,5.8101 -6.9663,13.3062 0.0371,0.1738 0.6792,1.1816 0.6792,1.1816 l 1.5264,0.9043 1.5264,0.4121 0.6548,0.8232 1.0171,0.7402 0.5815,-0.082 0.436,0.1963 0,0.1328 -0.5811,1.563 -0.4365,0.6582 0.1455,0.3301 -0.3633,1.2324 1.3086,2.3867 1.3081,1.1523 0.582,0.8223 -0.0732,1.7285 0.4365,0.9863 -0.4365,1.8926 c 0,0 -0.0342,-0.0117 0.0215,0.1777 0.0562,0.1895 2.3291,1.4512 2.4736,1.3438 0.144,-0.1094 0.2671,-0.2051 0.2671,-0.2051 l -0.145,-0.4102 0.5811,-0.5762 0.2183,-0.5762 0.9453,-0.3301 0.7266,-1.8105 -0.2178,-0.4922 0.5078,-0.7402 1.0908,-0.248 0.582,-1.3164 -0.1455,-1.6445 0.8721,-1.2344 0.1455,-1.2344 C 20.7331,29.4607 19.5495,28.8513 18.365,28.242"
             id="path4184"
             style="fill:#204a87" />
        </g>
      </g>
      <g
         id="g4186"
         style="fill:#204a87">
        <g
           id="g4190"
           style="fill:#204a87">
          <path
             d="m 16.7656,9.5649 0.7266,0.4937 0.582,0 0,-0.5757 -0.7266,-0.3291 -0.582,0.4111"
             id="path4192"
             style="fill:#204a87" />
        </g>
      </g>
      <g
         id="g4194"
         style="fill:#204a87">
        <g
           id="g4198"
           style="fill:#204a87">
          <path
             d="m 14.876,8.9072 -0.3638,0.9048 0.7271,0 0.3638,-0.8228 C 15.9166,8.7675 16.2286,8.5444 16.5479,8.331 l 0.7271,0.2471 c 0.4844,0.3291 0.9688,0.6582 1.4536,0.9868 L 19.4561,8.9072 18.6558,8.5781 18.292,7.8374 16.9111,7.6728 16.8383,7.2612 16.184,7.4262 15.8936,8.002 15.5298,7.2613 l -0.145,0.3291 0.0728,0.8228 -0.5816,0.494"
             id="path4200"
             style="fill:#204a87" />
        </g>
      </g>
      <g
         id="g4202"
         style="fill:#204a87">
        <g
           id="g4204"
           style="opacity:0.75;fill:#204a87">
          <path
             d=""
             id="path4206"
             style="fill:#204a87" />
        </g>
        <g
           id="g4208"
           style="fill:#204a87">
          <path
             d=""
             id="path4210"
             style="fill:#204a87" />
        </g>
      </g>
      <g
         id="g4212"
         style="fill:#204a87">
        <g
           id="g4214"
           style="opacity:0.75;fill:#204a87">
          <path
             d=""
             id="path4216"
             style="fill:#204a87" />
        </g>
        <g
           id="g4218"
           style="fill:#204a87">
          <path
             d=""
             id="path4220"
             style="fill:#204a87" />
        </g>
      </g>
      <g
         id="g4222"
         style="fill:#204a87">
        <g
           id="g4226"
           style="fill:#204a87">
          <path
             d="M 17.4922,6.8496 17.856,6.521 18.5831,6.3564 c 0.498,-0.2422 0.998,-0.4053 1.5264,-0.5762 l -0.29,-0.4937 -0.9385,0.1348 -0.4434,0.4419 -0.731,0.106 -0.6499,0.3052 -0.3159,0.1528 -0.1929,0.2583 0.9443,0.1641"
             id="path4228"
             style="fill:#204a87" />
        </g>
      </g>
      <g
         id="g4230"
         style="fill:#204a87">
        <g
           id="g4234"
           style="fill:#204a87">
          <path
             d="m 18.7285,14.6665 0.4365,-0.6582 -0.6548,-0.4932 0.2183,1.1514"
             id="path4236"
             style="fill:#204a87" />
        </g>
      </g>
    </g>
    <path
       d="m 42.975093,23.485534 c 0,10.16582 -8.241178,18.406906 -18.4056,18.406906 -10.165354,0 -18.4060669,-8.241179 -18.4060669,-18.406906 0,-10.165354 8.2407129,-18.4056 18.4060669,-18.4056 10.164422,0 18.4056,8.240246 18.4056,18.4056 l 0,0 z"
       id="path4122"
       style="opacity:0.39560439;fill:none;stroke:url(#radialGradient4132);stroke-miterlimit:4;stroke-opacity:1" />
    <path
       d="m -2.8284283,21.041553 a 15.733126,9.4575529 0 1 1 -31.4662517,0 15.733126,9.4575529 0 1 1 31.4662517,0 z"
       transform="matrix(1.131034,0.613097,-0.476556,0.879144,54.09058,16.04435)"
       id="path5991"
       style="color:#000000;fill:none;stroke:url(#linearGradient6007);stroke-width:0.88164198;stroke-linecap:round;stroke-linejoin:round;stroke-miterlimit:4;stroke-opacity:1;stroke-dasharray:none;stroke-dashoffset:0;marker:none;visibility:visible;display:inline;overflow:visible" />
    <path
       d="m -2.8284283,21.041553 a 15.733126,9.4575529 0 1 1 -31.4662517,0 15.733126,9.4575529 0 1 1 31.4662517,0 z"
       transform="matrix(0.939326,-0.879086,0.683307,0.730131,32.31406,-4.451561)"
       id="path6009"
       style="color:#000000;fill:none;stroke:url(#linearGradient6011);stroke-width:0.88164198;stroke-linecap:round;stroke-linejoin:round;stroke-miterlimit:4;stroke-opacity:1;stroke-dasharray:none;stroke-dashoffset:0;marker:none;visibility:visible;display:inline;overflow:visible" />
    <g
       transform="matrix(-1.045772,0.767251,0.767251,1.045772,35.61651,-22.14396)"
       id="g4933">
      <path
         d="m 18.788838,12.493138 a 6.7175145,6.7175145 0 1 1 -13.4350291,0 6.7175145,6.7175145 0 1 1 13.4350291,0 z"
         transform="translate(14.95026,22.93047)"
         id="path4935"
         style="color:#000000;fill:url(#radialGradient5987);fill-opacity:1;fill-rule:evenodd;stroke:none;stroke-width:1;marker:none;visibility:visible;display:inline;overflow:visible" />
      <path
         d="m 18.788838,12.493138 a 6.7175145,6.7175145 0 1 1 -13.4350291,0 6.7175145,6.7175145 0 1 1 13.4350291,0 z"
         transform="matrix(0.308271,0,0,0.308271,23.30035,31.57234)"
         id="path4937"
         style="color:#000000;fill:#ffffff;fill-opacity:1;fill-rule:evenodd;stroke:none;stroke-width:1;marker:none;visibility:visible;display:inline;overflow:visible" />
    </g>
    <path
       d="m -2.8284283,21.041553 a 15.733126,9.4575529 0 1 1 -31.4662517,0 15.733126,9.4575529 0 1 1 31.4662517,0 z"
       transform="matrix(-1.280316,-0.126159,0.09806226,-0.99518,-2.405125,40.52387)"
       id="path6013"
       style="color:#000000;fill:none;stroke:url(#linearGradient6015);stroke-width:0.88164198;stroke-linecap:round;stroke-linejoin:round;stroke-miterlimit:4;stroke-opacity:1;stroke-dasharray:none;stroke-dashoffset:0;marker:none;visibility:visible;display:inline;overflow:visible" />
    <path
       d="m -2.8284283,21.041553 a 15.733126,9.4575529 0 1 1 -31.4662517,0 15.733126,9.4575529 0 1 1 31.4662517,0 z"
       transform="matrix(0.917874,-0.858983,0.667701,0.713433,27.63317,-6.909069)"
       id="path6017"
       style="color:#000000;fill:none;stroke:url(#linearGradient6019);stroke-width:0.90226138;stroke-linecap:round;stroke-linejoin:round;stroke-miterlimit:4;stroke-opacity:1;stroke-dasharray:none;stroke-dashoffset:0;marker:none;visibility:visible;display:inline;overflow:visible" />
    <g
       transform="matrix(-0.806276,0.59154,0.59154,0.806276,12.38564,-18.02921)"
       id="g5075">
      <path
         d="m 18.788838,12.493138 a 6.7175145,6.7175145 0 1 1 -13.4350291,0 6.7175145,6.7175145 0 1 1 13.4350291,0 z"
         transform="translate(14.95026,22.93047)"
         id="path5077"
         style="color:#000000;fill:url(#radialGradient5983);fill-opacity:1;fill-rule:evenodd;stroke:none;stroke-width:1;marker:none;visibility:visible;display:inline;overflow:visible" />
      <path
         d="m 18.788838,12.493138 a 6.7175145,6.7175145 0 1 1 -13.4350291,0 6.7175145,6.7175145 0 1 1 13.4350291,0 z"
         transform="matrix(0.308271,0,0,0.308271,23.30035,31.57234)"
         id="path5079"
         style="color:#000000;fill:#ffffff;fill-opacity:1;fill-rule:evenodd;stroke:none;stroke-width:1;marker:none;visibility:visible;display:inline;overflow:visible" />
    </g>
    <g
       transform="matrix(-0.806276,0.59154,0.59154,0.806276,13.4991,-31.50022)"
       id="g4945">
      <path
         d="m 18.788838,12.493138 a 6.7175145,6.7175145 0 1 1 -13.4350291,0 6.7175145,6.7175145 0 1 1 13.4350291,0 z"
         transform="translate(14.95026,22.93047)"
         id="path4947"
         style="color:#000000;fill:url(#radialGradient5985);fill-opacity:1;fill-rule:evenodd;stroke:none;stroke-width:1;marker:none;visibility:visible;display:inline;overflow:visible" />
      <path
         d="m 18.788838,12.493138 a 6.7175145,6.7175145 0 1 1 -13.4350291,0 6.7175145,6.7175145 0 1 1 13.4350291,0 z"
         transform="matrix(0.308271,0,0,0.308271,23.30035,31.57234)"
         id="path4949"
         style="color:#000000;fill:#ffffff;fill-opacity:1;fill-rule:evenodd;stroke:none;stroke-width:1;marker:none;visibility:visible;display:inline;overflow:visible" />
    </g>
    <g
       transform="matrix(-0.870227,0.638572,0.638458,0.870381,25.20503,-35.31278)"
       id="g4939">
      <path
         d="m 18.788838,12.493138 a 6.7175145,6.7175145 0 1 1 -13.4350291,0 6.7175145,6.7175145 0 1 1 13.4350291,0 z"
         transform="translate(14.95026,22.93047)"
         id="path4941"
         style="color:#000000;fill:url(#radialGradient5989);fill-opacity:1;fill-rule:evenodd;stroke:none;stroke-width:1;marker:none;visibility:visible;display:inline;overflow:visible" />
      <path
         d="m 18.788838,12.493138 a 6.7175145,6.7175145 0 1 1 -13.4350291,0 6.7175145,6.7175145 0 1 1 13.4350291,0 z"
         transform="matrix(0.308271,0,0,0.308271,23.30035,31.57234)"
         id="path4943"
         style="color:#000000;fill:#ffffff;fill-opacity:1;fill-rule:evenodd;stroke:none;stroke-width:1;marker:none;visibility:visible;display:inline;overflow:visible" />
    </g>
    <g
       transform="translate(24.06625,1.85625)"
       id="flowRoot3079"
       style="font-size:40px;font-style:normal;font-weight:normal;line-height:125%;letter-spacing:0px;word-spacing:0px;fill:#f57900;fill-opacity:1;stroke:#2e3436;stroke-opacity:1;font-family:Sans">
      <path
         d="m -6.97625,8.58375 0,12.26 c -7.2e-6,1.520006 0.3466591,2.726672 1.04,3.62 0.7066577,0.880003 1.7733233,1.320003 3.2,1.32 1.226654,3e-6 2.29331962,-0.326663 3.2,-0.98 0.9199845,-0.666662 1.6866504,-1.593328 2.3,-2.78 l 0,-13.44 3.56,0 0,14.78 c -2.05e-5,1.040004 0.2666459,1.800004 0.8,2.28 0.5333115,0.480003 1.2399775,0.720002 2.12,0.72 l 1.18,0 0,1.44 c -2.5e-5,0.306667 -0.213358,0.593334 -0.64,0.86 -0.4133569,0.253333 -1.0066896,0.38 -1.78,0.38 -0.5600216,0 -1.1000211,-0.08 -1.62,-0.24 -0.5066867,-0.16 -0.9733529,-0.406666 -1.4,-0.74 -0.4133521,-0.346666 -0.7733517,-0.773332 -1.08,-1.28 -0.3066844,-0.519997 -0.5266842,-1.13333 -0.66,-1.84 -0.8000166,1.200003 -1.713349,2.133335 -2.74,2.8 -1.01334698,0.653334 -2.1600125,0.98 -3.44,0.98 -1.0000102,0 -1.8733427,-0.153333 -2.62,-0.46 -0.7333412,-0.319999 -1.3533406,-0.779999 -1.86,-1.38 0.079993,0.546668 0.1333265,1.100001 0.16,1.66 0.039993,0.56 0.059993,1.086666 0.06,1.58 l 0,5.58 -1.78,0 c -0.5066713,-7e-6 -0.9000043,-0.13334 -1.18,-0.4 -0.26667,-0.266673 -0.400004,-0.640006 -0.4,-1.12 l 0,-25.6 3.58,0"
         id="path3088"
         style="font-variant:normal;font-stretch:normal;fill:#f57900;fill-opacity:1;stroke:#2e3436;stroke-opacity:1;font-family:Lato;-inkscape-font-specification:Lato Semi-Light" />
    </g>
    <text
       x="-83.5"
       y="-2.7500005"
       id="text3858"
       xml:space="preserve"
       style="font-size:40px;font-style:normal;font-weight:normal;line-height:125%;letter-spacing:0px;word-spacing:0px;fill:#000000;fill-opacity:1;stroke:none;font-family:Sans"><tspan
         x="-83.5"
         y="-2.7500005"
         id="tspan3860"></tspan></text>
  </g>
</svg>
